<svg xmlns="http://www.w3.org/2000/svg" xmlns:xlink="http://www.w3.org/1999/xlink" contentStyleType="text/css" data-diagram-type="DESCRIPTION" height="239px" preserveAspectRatio="none" style="width:1893px;height:239px;background:#1B1B1B;" version="1.1" viewBox="0 0 1893 239" width="1893px" zoomAndPan="magnify"><title>Cataract Detection System Use Case Diagram</title><defs/><g><rect fill="#1B1B1B" height="239" style="stroke:none;stroke-width:1;" width="1893" x="0" y="0"/><text fill="#FFFFFF" font-family="sans-serif" font-size="14" font-weight="bold" lengthAdjust="spacing" textLength="360.1445" x="759.7613" y="22.9951">Cataract Detection System Use Case Diagram</text><!--entity user--><g class="entity" data-entity="user" data-source-line="3" data-uid="ent0002" id="entity_user"><ellipse cx="420.4651" cy="56.4769" fill="#313139" rx="8" ry="8" style="stroke:#E7E7E7;stroke-width:0.5;"/><path d="M420.4651,64.4769 L420.4651,91.4769 M407.4651,72.4769 L433.4651,72.4769 M420.4651,91.4769 L407.4651,106.4769 M420.4651,91.4769 L433.4651,106.4769 " fill="none" style="stroke:#E7E7E7;stroke-width:0.5;"/><text fill="#FFFFFF" font-family="sans-serif" font-size="14" lengthAdjust="spacing" textLength="31.9102" x="404.51" y="120.972">User</text></g><!--entity admin--><g class="entity" data-entity="admin" data-source-line="4" data-uid="ent0003" id="entity_admin"><ellipse cx="1452.4621" cy="56.4769" fill="#313139" rx="8" ry="8" style="stroke:#E7E7E7;stroke-width:0.5;"/><path d="M1452.4621,64.4769 L1452.4621,91.4769 M1439.4621,72.4769 L1465.4621,72.4769 M1452.4621,91.4769 L1439.4621,106.4769 M1452.4621,91.4769 L1465.4621,106.4769 " fill="none" style="stroke:#E7E7E7;stroke-width:0.5;"/><text fill="#FFFFFF" font-family="sans-serif" font-size="14" lengthAdjust="spacing" textLength="44.8643" x="1430.03" y="120.972">Admin</text></g><g class="entity" data-entity="uc_login" data-source-line="6" data-uid="ent0004" id="entity_uc_login"><ellipse cx="44.4641" cy="211.2026" fill="#313139" rx="38.4641" ry="14.5557" style="stroke:#E7E7E7;stroke-width:0.5;"/><text fill="#FFFFFF" font-family="sans-serif" font-size="14" lengthAdjust="spacing" textLength="38.0146" x="23.59" y="214.6575">Login</text></g><g class="entity" data-entity="uc_signup" data-source-line="7" data-uid="ent0005" id="entity_uc_signup"><ellipse cx="164.4644" cy="211.2072" fill="#313139" rx="46.1044" ry="14.6503" style="stroke:#E7E7E7;stroke-width:0.5;"/><text fill="#FFFFFF" font-family="sans-serif" font-size="14" lengthAdjust="spacing" textLength="48.2959" x="137.3165" y="214.9548">Signup</text></g><g class="entity" data-entity="uc_upload" data-source-line="8" data-uid="ent0006" id="entity_uc_upload"><ellipse cx="317.4647" cy="211.2038" fill="#313139" rx="71.6847" ry="16.7369" style="stroke:#E7E7E7;stroke-width:0.5;"/><text fill="#FFFFFF" font-family="sans-serif" font-size="14" lengthAdjust="spacing" textLength="97.3506" x="265.7894" y="214.9514">Upload Image</text></g><g class="entity" data-entity="uc_history" data-source-line="9" data-uid="ent0007" id="entity_uc_history"><ellipse cx="523.4612" cy="211.2111" fill="#313139" rx="99.2212" ry="22.2442" style="stroke:#E7E7E7;stroke-width:0.5;"/><text fill="#FFFFFF" font-family="sans-serif" font-size="14" lengthAdjust="spacing" textLength="162.3398" x="442.2913" y="214.0578">View Prediction History</text></g><g class="entity" data-entity="uc_search" data-source-line="10" data-uid="ent0008" id="entity_uc_search"><ellipse cx="733.4556" cy="211.204" fill="#313139" rx="75.3856" ry="17.4771" style="stroke:#E7E7E7;stroke-width:0.5;"/><text fill="#FFFFFF" font-family="sans-serif" font-size="14" lengthAdjust="spacing" textLength="107.0029" x="676.9541" y="214.9515">Search Doctors</text></g><g class="entity" data-entity="uc_profile" data-source-line="11" data-uid="ent0009" id="entity_uc_profile"><ellipse cx="930.4645" cy="211.2118" fill="#313139" rx="86.3245" ry="19.6649" style="stroke:#E7E7E7;stroke-width:0.5;"/><text fill="#FFFFFF" font-family="sans-serif" font-size="14" lengthAdjust="spacing" textLength="133.3691" x="863.7799" y="214.0585">View Doctor Profile</text></g><g class="entity" data-entity="admin_login" data-source-line="13" data-uid="ent0010" id="entity_admin_login"><ellipse cx="1119.4587" cy="211.2066" fill="#313139" rx="67.9987" ry="15.9997" style="stroke:#E7E7E7;stroke-width:0.5;"/><text fill="#FFFFFF" font-family="sans-serif" font-size="14" lengthAdjust="spacing" textLength="87.3291" x="1072.7942" y="214.9542">Admin Login</text></g><g class="entity" data-entity="admin_add" data-source-line="14" data-uid="ent0011" id="entity_admin_add"><ellipse cx="1287.4584" cy="211.2086" fill="#313139" rx="64.9584" ry="15.3917" style="stroke:#E7E7E7;stroke-width:0.5;"/><text fill="#FFFFFF" font-family="sans-serif" font-size="14" lengthAdjust="spacing" textLength="78.6543" x="1245.1312" y="214.9561">Add Doctor</text></g><g class="entity" data-entity="admin_edit" data-source-line="15" data-uid="ent0012" id="entity_admin_edit"><ellipse cx="1452.4567" cy="211.2022" fill="#313139" rx="64.8767" ry="15.3753" style="stroke:#E7E7E7;stroke-width:0.5;"/><text fill="#FFFFFF" font-family="sans-serif" font-size="14" lengthAdjust="spacing" textLength="78.415" x="1410.2492" y="214.9498">Edit Doctor</text></g><g class="entity" data-entity="admin_delete" data-source-line="16" data-uid="ent0013" id="entity_admin_delete"><ellipse cx="1624.4567" cy="211.2102" fill="#313139" rx="71.6667" ry="16.7333" style="stroke:#E7E7E7;stroke-width:0.5;"/><text fill="#FFFFFF" font-family="sans-serif" font-size="14" lengthAdjust="spacing" textLength="97.3027" x="1572.8053" y="214.9578">Delete Doctor</text></g><g class="entity" data-entity="admin_data" data-source-line="17" data-uid="ent0014" id="entity_admin_data"><ellipse cx="1809.4586" cy="211.2086" fill="#313139" rx="78.2086" ry="18.0417" style="stroke:#E7E7E7;stroke-width:0.5;"/><text fill="#FFFFFF" font-family="sans-serif" font-size="14" lengthAdjust="spacing" textLength="114.1328" x="1750.0248" y="214.7882">Get Doctor Data</text></g><g class="entity" data-entity="GMN26" data-source-line="33" data-uid="ent0027" id="entity_GMN26"><path d="M239.87,43.2969 L239.87,128.9609 A0,0 0 0 0 239.87,128.9609 L369.0531,128.9609 A0,0 0 0 0 369.0531,128.9609 L369.0531,90.1269 L404.06,86.1269 L369.0531,82.1269 L369.0531,53.2969 L359.0531,43.2969 L239.87,43.2969 A0,0 0 0 0 239.87,43.2969 " fill="#714137" style="stroke:#E7E7E7;stroke-width:0.5;"/><path d="M359.0531,43.2969 L359.0531,53.2969 L369.0531,53.2969 L359.0531,43.2969 " fill="#714137" style="stroke:#E7E7E7;stroke-width:0.5;"/><text fill="#FFFFFF" font-family="sans-serif" font-size="13" lengthAdjust="spacing" textLength="85.8584" x="245.87" y="60.3638">User Actions:</text><text fill="#FFFFFF" font-family="sans-serif" font-size="13" lengthAdjust="spacing" textLength="92.4473" x="245.87" y="75.4966">- Authenticate</text><text fill="#FFFFFF" font-family="sans-serif" font-size="13" lengthAdjust="spacing" textLength="105.9932" x="245.87" y="90.6294">- Upload Images</text><text fill="#FFFFFF" font-family="sans-serif" font-size="13" lengthAdjust="spacing" textLength="91.6157" x="245.87" y="105.7622">- View Results</text><text fill="#FFFFFF" font-family="sans-serif" font-size="13" lengthAdjust="spacing" textLength="108.1831" x="245.87" y="120.895">- Search Doctors</text></g><g class="entity" data-entity="GMN29" data-source-line="41" data-uid="ent0030" id="entity_GMN29"><path d="M1510.09,58.4269 L1510.09,82.1269 L1475.15,86.1269 L1510.09,90.1269 L1510.09,113.8253 A0,0 0 0 0 1510.09,113.8253 L1658.8302,113.8253 A0,0 0 0 0 1658.8302,113.8253 L1658.8302,68.4269 L1648.8302,58.4269 L1510.09,58.4269 A0,0 0 0 0 1510.09,58.4269 " fill="#714137" style="stroke:#E7E7E7;stroke-width:0.5;"/><path d="M1648.8302,58.4269 L1648.8302,68.4269 L1658.8302,68.4269 L1648.8302,58.4269 " fill="#714137" style="stroke:#E7E7E7;stroke-width:0.5;"/><text fill="#FFFFFF" font-family="sans-serif" font-size="13" lengthAdjust="spacing" textLength="97.8872" x="1516.09" y="75.4938">Admin Actions:</text><text fill="#FFFFFF" font-family="sans-serif" font-size="13" lengthAdjust="spacing" textLength="114.8735" x="1516.09" y="90.6266">- Manage Doctors</text><text fill="#FFFFFF" font-family="sans-serif" font-size="13" lengthAdjust="spacing" textLength="127.7402" x="1516.09" y="105.7594">- View System Data</text></g><!--link user to uc_login--><g class="link" data-entity-1="user" data-entity-2="uc_login" data-source-line="19" data-uid="lnk15" id="link_user_uc_login"><path d="M404.13,112.8569 C399.14,118.9569 393.18,124.8669 386.46,128.9569 C275.57,196.5769 225.11,152.4769 100.46,188.9569 C90.18,191.9669 84.6996,193.816 75.1396,197.546 " fill="none" id="user-to-uc_login" style="stroke:#E7E7E7;stroke-width:1;"/><polygon fill="#E7E7E7" points="69.55,199.7269,79.3883,200.182,74.208,197.9095,76.4805,192.7291,69.55,199.7269" style="stroke:#E7E7E7;stroke-width:1;"/></g><!--link user to uc_signup--><g class="link" data-entity-1="user" data-entity-2="uc_signup" data-source-line="20" data-uid="lnk16" id="link_user_uc_signup"><path d="M404.07,111.7869 C399,118.0269 393.02,124.2869 386.46,128.9569 C370.34,140.4569 258.0383,178.8882 200.9383,198.0482 " fill="none" id="user-to-uc_signup" style="stroke:#E7E7E7;stroke-width:1;"/><polygon fill="#E7E7E7" points="195.25,199.9569,205.0549,200.886,199.9903,198.3663,202.51,193.3016,195.25,199.9569" style="stroke:#E7E7E7;stroke-width:1;"/></g><!--link user to uc_upload--><g class="link" data-entity-1="user" data-entity-2="uc_upload" data-source-line="21" data-uid="lnk17" id="link_user_uc_upload"><path d="M404.29,107.1969 C398.68,114.1169 392.33,121.9069 386.46,128.9569 C367.42,151.8769 348.9464,173.5427 334.9564,189.8527 " fill="none" id="user-to-uc_upload" style="stroke:#E7E7E7;stroke-width:1;"/><polygon fill="#E7E7E7" points="331.05,194.4069,339.9456,190.1799,334.3053,190.6117,333.8734,184.9714,331.05,194.4069" style="stroke:#E7E7E7;stroke-width:1;"/></g><!--link user to uc_history--><g class="link" data-entity-1="user" data-entity-2="uc_history" data-source-line="22" data-uid="lnk18" id="link_user_uc_history"><path d="M436.78,106.6269 C455.62,129.1269 482.6197,161.3952 501.9897,184.5452 " fill="none" id="user-to-uc_history" style="stroke:#E7E7E7;stroke-width:1;"/><polygon fill="#E7E7E7" points="505.84,189.1469,503.1323,179.6775,502.6314,185.3122,496.9968,184.8112,505.84,189.1469" style="stroke:#E7E7E7;stroke-width:1;"/></g><!--link user to uc_search--><g class="link" data-entity-1="user" data-entity-2="uc_search" data-source-line="23" data-uid="lnk19" id="link_user_uc_search"><path d="M436.85,93.5669 C485.22,112.5869 622.6363,166.6209 690.8563,193.4509 " fill="none" id="user-to-uc_search" style="stroke:#E7E7E7;stroke-width:1;"/><polygon fill="#E7E7E7" points="696.44,195.6469,689.5285,188.6304,691.7869,193.8169,686.6005,196.0754,696.44,195.6469" style="stroke:#E7E7E7;stroke-width:1;"/></g><!--link user to uc_profile--><g class="link" data-entity-1="user" data-entity-2="uc_profile" data-source-line="24" data-uid="lnk20" id="link_user_uc_profile"><path d="M436.86,91.0869 C503.69,107.2069 751.6975,167.0592 867.0075,194.8892 " fill="none" id="user-to-uc_profile" style="stroke:#E7E7E7;stroke-width:1;"/><polygon fill="#E7E7E7" points="872.84,196.2969,865.0297,190.297,867.9796,195.1238,863.1527,198.0737,872.84,196.2969" style="stroke:#E7E7E7;stroke-width:1;"/></g><!--link admin to admin_login--><g class="link" data-entity-1="admin" data-entity-2="admin_login" data-source-line="26" data-uid="lnk21" id="link_admin_admin_login"><path d="M1429.58,95.5869 C1372.49,116.6869 1229.118,169.6771 1160.548,195.0171 " fill="none" id="admin-to-admin_login" style="stroke:#E7E7E7;stroke-width:1;"/><polygon fill="#E7E7E7" points="1154.92,197.0969,1164.7485,197.7291,1159.61,195.3637,1161.9754,190.2251,1154.92,197.0969" style="stroke:#E7E7E7;stroke-width:1;"/></g><!--link admin to admin_add--><g class="link" data-entity-1="admin" data-entity-2="admin_add" data-source-line="27" data-uid="lnk22" id="link_admin_admin_add"><path d="M1429.87,103.9769 C1397.03,128.4769 1341.5491,169.859 1311.0291,192.629 " fill="none" id="admin-to-admin_add" style="stroke:#E7E7E7;stroke-width:1;"/><polygon fill="#E7E7E7" points="1306.22,196.2169,1315.8255,194.0411,1310.2276,193.227,1311.0417,187.629,1306.22,196.2169" style="stroke:#E7E7E7;stroke-width:1;"/></g><!--link admin to admin_edit--><g class="link" data-entity-1="admin" data-entity-2="admin_edit" data-source-line="28" data-uid="lnk23" id="link_admin_admin_edit"><path d="M1452.46,124.7269 C1452.46,148.6169 1452.46,172.2169 1452.46,189.5769 " fill="none" id="admin-to-admin_edit" style="stroke:#E7E7E7;stroke-width:1;"/><polygon fill="#E7E7E7" points="1452.46,195.5769,1456.46,186.5769,1452.46,190.5769,1448.46,186.5769,1452.46,195.5769" style="stroke:#E7E7E7;stroke-width:1;"/></g><!--link admin to admin_delete--><g class="link" data-entity-1="admin" data-entity-2="admin_delete" data-source-line="29" data-uid="lnk24" id="link_admin_admin_delete"><path d="M1475.17,112.9669 C1480.59,118.5169 1486.52,124.1569 1492.46,128.9569 C1525.64,155.7669 1563.0511,177.675 1590.7611,192.645 " fill="none" id="admin-to-admin_delete" style="stroke:#E7E7E7;stroke-width:1;"/><polygon fill="#E7E7E7" points="1596.04,195.4969,1590.0229,187.6998,1591.6409,193.1203,1586.2204,194.7383,1596.04,195.4969" style="stroke:#E7E7E7;stroke-width:1;"/></g><!--link admin to admin_data--><g class="link" data-entity-1="admin" data-entity-2="admin_data" data-source-line="30" data-uid="lnk25" id="link_admin_admin_data"><path d="M1475.07,115.2269 C1480.32,120.3969 1486.22,125.3069 1492.46,128.9569 C1515.11,142.2069 1664.3198,177.3144 1748.8798,196.5744 " fill="none" id="admin-to-admin_data" style="stroke:#E7E7E7;stroke-width:1;"/><polygon fill="#E7E7E7" points="1754.73,197.9069,1746.8431,192.008,1749.8549,196.7965,1745.0664,199.8083,1754.73,197.9069" style="stroke:#E7E7E7;stroke-width:1;"/></g><!--SRC=[PLF1QiCm3BtdAqJl_O4T1c4Pss23ij9TXudLnE3OmNOO_Vl9ScAxwIL4JozFqfCILD08Bo889_e07GRiWx86pZSVS8ABZrbwT4eCJanDGpJhu409Tm3XOQ6N3Mpbf0oZ8hur3INx-FNXqmvhPkb_TGnAxgm6iynRqdDKifTPMo7XOn83Rfo5iSBvKVW79uTIfURVbQT-RXjzJ65L4ONhH-XiRDldoepkL1E7nErLwTp0dC9gG1uTofXim7xILifLiE88MKtoAbLufD1WeN0wrBIcHvPalF3US9E2ZXPSCodatXqSZyztAyb8sKE6YkqPggmjNsOVCvJzulgCrWRjqMZ97cCFzk0wyWFCynbBBccy1h3NTAOGxzb1orVYdoW-Ghk44KrGlI2X2DG7vndXG_X6l-YGWFlxQT18YCNMaauD8zTCFm50kesxgb_2a7nMo5NMtoxkAyl-0m00]--></g></svg>